<mxfile host="Electron" modified="2024-01-16T02:10:25.981Z" agent="Mozilla/5.0 (X11; Linux x86_64) AppleWebKit/537.36 (KHTML, like Gecko) draw.io/22.1.16 Chrome/120.0.6099.109 Electron/28.1.0 Safari/537.36" etag="iG2engiwq4Lat6mPPDE3" version="22.1.16" type="device">
  <diagram id="lCh61VhRBcFmrFULaLqr" name="Page-1">
    <mxGraphModel dx="1147" dy="670" grid="1" gridSize="10" guides="1" tooltips="1" connect="1" arrows="1" fold="1" page="1" pageScale="1" pageWidth="1169" pageHeight="827" math="0" shadow="0">
      <root>
        <mxCell id="0" />
        <mxCell id="1" parent="0" />
        <mxCell id="EE9BV4YBEMpnvcACtNnI-5" value="Recording" style="swimlane;fontStyle=0;childLayout=stackLayout;horizontal=1;startSize=26;fillColor=none;horizontalStack=0;resizeParent=1;resizeParentMax=0;resizeLast=0;collapsible=1;marginBottom=0;labelBorderColor=none;fontColor=#CC6600;strokeColor=#999999;" parent="1" vertex="1">
          <mxGeometry x="405" y="447" width="169" height="128" as="geometry" />
        </mxCell>
        <mxCell id="EE9BV4YBEMpnvcACtNnI-7" value="+ meta: RecordingMetaData" style="text;strokeColor=none;fillColor=none;align=left;verticalAlign=top;spacingLeft=4;spacingRight=4;overflow=hidden;rotatable=0;points=[[0,0.5],[1,0.5]];portConstraint=eastwest;labelBorderColor=none;fontColor=#CC6600;" parent="EE9BV4YBEMpnvcACtNnI-5" vertex="1">
          <mxGeometry y="26" width="169" height="26" as="geometry" />
        </mxCell>
        <mxCell id="EE9BV4YBEMpnvcACtNnI-8" value="+ textgrid: TextGrid" style="text;strokeColor=none;fillColor=none;align=left;verticalAlign=top;spacingLeft=4;spacingRight=4;overflow=hidden;rotatable=0;points=[[0,0.5],[1,0.5]];portConstraint=eastwest;labelBorderColor=none;fontColor=#CC6600;snapToPoint=1;" parent="EE9BV4YBEMpnvcACtNnI-5" vertex="1">
          <mxGeometry y="52" width="169" height="26" as="geometry" />
        </mxCell>
        <mxCell id="dw-5MU0nXrqIQdTcudcJ-73" value="+ annotations: PointAnnotations" style="text;strokeColor=none;fillColor=none;align=left;verticalAlign=top;spacingLeft=4;spacingRight=4;overflow=hidden;rotatable=0;points=[[0,0.5],[1,0.5]];portConstraint=eastwest;labelBorderColor=none;fontColor=#CC6600;" vertex="1" parent="EE9BV4YBEMpnvcACtNnI-5">
          <mxGeometry y="78" width="169" height="26" as="geometry" />
        </mxCell>
        <mxCell id="EE9BV4YBEMpnvcACtNnI-6" value="+ modalities: dict[str, Modality]" style="text;strokeColor=none;fillColor=none;align=left;verticalAlign=top;spacingLeft=4;spacingRight=4;overflow=hidden;rotatable=0;points=[[0,0.5],[1,0.5]];portConstraint=eastwest;labelBorderColor=none;fontColor=#CC6600;" parent="EE9BV4YBEMpnvcACtNnI-5" vertex="1">
          <mxGeometry y="104" width="169" height="24" as="geometry" />
        </mxCell>
        <mxCell id="EE9BV4YBEMpnvcACtNnI-9" value="Modality" style="swimlane;fontStyle=0;childLayout=stackLayout;horizontal=1;startSize=26;fillColor=none;horizontalStack=0;resizeParent=1;resizeParentMax=0;resizeLast=0;collapsible=1;marginBottom=0;labelBorderColor=none;strokeColor=#999999;fontColor=#CC6600;" parent="1" vertex="1">
          <mxGeometry x="399" y="777" width="180" height="104" as="geometry">
            <mxRectangle x="410" y="720" width="90" height="30" as="alternateBounds" />
          </mxGeometry>
        </mxCell>
        <mxCell id="EE9BV4YBEMpnvcACtNnI-12" value="+ annotations: PointAnnotations" style="text;strokeColor=none;fillColor=none;align=left;verticalAlign=top;spacingLeft=4;spacingRight=4;overflow=hidden;rotatable=0;points=[[0,0.5],[1,0.5]];portConstraint=eastwest;labelBorderColor=none;fontColor=#CC6600;" parent="EE9BV4YBEMpnvcACtNnI-9" vertex="1">
          <mxGeometry y="26" width="180" height="26" as="geometry" />
        </mxCell>
        <mxCell id="dw-5MU0nXrqIQdTcudcJ-68" value="+ meta: ModalityMetaData" style="text;strokeColor=none;fillColor=none;align=left;verticalAlign=top;spacingLeft=4;spacingRight=4;overflow=hidden;rotatable=0;points=[[0,0.5],[1,0.5]];portConstraint=eastwest;labelBorderColor=none;fontColor=#CC6600;" vertex="1" parent="EE9BV4YBEMpnvcACtNnI-9">
          <mxGeometry y="52" width="180" height="26" as="geometry" />
        </mxCell>
        <mxCell id="EE9BV4YBEMpnvcACtNnI-10" value="+ data: ModalityData" style="text;strokeColor=none;fillColor=none;align=left;verticalAlign=top;spacingLeft=4;spacingRight=4;overflow=hidden;rotatable=0;points=[[0,0.5],[1,0.5]];portConstraint=eastwest;labelBorderColor=none;fontColor=#CC6600;" parent="EE9BV4YBEMpnvcACtNnI-9" vertex="1">
          <mxGeometry y="78" width="180" height="26" as="geometry" />
        </mxCell>
        <mxCell id="EE9BV4YBEMpnvcACtNnI-13" value="ModalityData" style="swimlane;fontStyle=0;childLayout=stackLayout;horizontal=1;startSize=26;fillColor=none;horizontalStack=0;resizeParent=1;resizeParentMax=0;resizeLast=0;collapsible=1;marginBottom=0;labelBorderColor=none;strokeColor=#999999;fontColor=#CC6600;" parent="1" vertex="1">
          <mxGeometry x="403" y="952" width="170" height="102" as="geometry" />
        </mxCell>
        <mxCell id="EE9BV4YBEMpnvcACtNnI-14" value="+ data: numpy.ndarray" style="text;strokeColor=none;fillColor=none;align=left;verticalAlign=top;spacingLeft=4;spacingRight=4;overflow=hidden;rotatable=0;points=[[0,0.5],[1,0.5]];portConstraint=eastwest;labelBorderColor=none;fontColor=#CC6600;" parent="EE9BV4YBEMpnvcACtNnI-13" vertex="1">
          <mxGeometry y="26" width="170" height="24" as="geometry" />
        </mxCell>
        <mxCell id="EE9BV4YBEMpnvcACtNnI-15" value="+ timevector: numpy.ndarray" style="text;strokeColor=none;fillColor=none;align=left;verticalAlign=top;spacingLeft=4;spacingRight=4;overflow=hidden;rotatable=0;points=[[0,0.5],[1,0.5]];portConstraint=eastwest;labelBorderColor=none;fontColor=#CC6600;" parent="EE9BV4YBEMpnvcACtNnI-13" vertex="1">
          <mxGeometry y="50" width="170" height="26" as="geometry" />
        </mxCell>
        <mxCell id="EE9BV4YBEMpnvcACtNnI-16" value="+ sampling_rate: int" style="text;strokeColor=none;fillColor=none;align=left;verticalAlign=top;spacingLeft=4;spacingRight=4;overflow=hidden;rotatable=0;points=[[0,0.5],[1,0.5]];portConstraint=eastwest;labelBorderColor=none;fontColor=#CC6600;" parent="EE9BV4YBEMpnvcACtNnI-13" vertex="1">
          <mxGeometry y="76" width="170" height="26" as="geometry" />
        </mxCell>
        <mxCell id="EE9BV4YBEMpnvcACtNnI-17" value="RecordingMetaData" style="swimlane;fontStyle=0;childLayout=stackLayout;horizontal=1;startSize=26;fillColor=none;horizontalStack=0;resizeParent=1;resizeParentMax=0;resizeLast=0;collapsible=1;marginBottom=0;labelBorderColor=none;strokeColor=#999999;fontColor=#CC6600;" parent="1" vertex="1">
          <mxGeometry x="689" y="475" width="180" height="78" as="geometry" />
        </mxCell>
        <mxCell id="EE9BV4YBEMpnvcACtNnI-19" value="+ time_of_recording: datetime" style="text;strokeColor=none;fillColor=none;align=left;verticalAlign=top;spacingLeft=4;spacingRight=4;overflow=hidden;rotatable=0;points=[[0,0.5],[1,0.5]];portConstraint=eastwest;labelBorderColor=none;fontColor=#CC6600;" parent="EE9BV4YBEMpnvcACtNnI-17" vertex="1">
          <mxGeometry y="26" width="180" height="26" as="geometry" />
        </mxCell>
        <mxCell id="EE9BV4YBEMpnvcACtNnI-20" value="+ prompt: str" style="text;strokeColor=none;fillColor=none;align=left;verticalAlign=top;spacingLeft=4;spacingRight=4;overflow=hidden;rotatable=0;points=[[0,0.5],[1,0.5]];portConstraint=eastwest;labelBorderColor=none;fontColor=#CC6600;" parent="EE9BV4YBEMpnvcACtNnI-17" vertex="1">
          <mxGeometry y="52" width="180" height="26" as="geometry" />
        </mxCell>
        <mxCell id="EE9BV4YBEMpnvcACtNnI-21" value="TextGrid" style="swimlane;fontStyle=0;childLayout=stackLayout;horizontal=1;startSize=26;fillColor=none;horizontalStack=0;resizeParent=1;resizeParentMax=0;resizeLast=0;collapsible=1;marginBottom=0;labelBorderColor=none;strokeColor=#999999;fontColor=#CC6600;" parent="1" vertex="1">
          <mxGeometry x="689" y="580" width="110" height="50" as="geometry" />
        </mxCell>
        <mxCell id="dw-5MU0nXrqIQdTcudcJ-53" value="+ tiers: dict[Tier]" style="text;strokeColor=none;fillColor=none;align=left;verticalAlign=top;spacingLeft=4;spacingRight=4;overflow=hidden;rotatable=0;points=[[0,0.5],[1,0.5]];portConstraint=eastwest;labelBorderColor=none;fontColor=#CC6600;" vertex="1" parent="EE9BV4YBEMpnvcACtNnI-21">
          <mxGeometry y="26" width="110" height="24" as="geometry" />
        </mxCell>
        <mxCell id="EE9BV4YBEMpnvcACtNnI-25" value="" style="endArrow=open;html=1;endSize=12;startArrow=diamondThin;startSize=14;startFill=0;edgeStyle=orthogonalEdgeStyle;rounded=0;fontColor=#CC6600;exitX=1;exitY=0.5;exitDx=0;exitDy=0;entryX=0;entryY=0.25;entryDx=0;entryDy=0;strokeColor=#999999;" parent="1" source="EE9BV4YBEMpnvcACtNnI-8" target="EE9BV4YBEMpnvcACtNnI-21" edge="1">
          <mxGeometry relative="1" as="geometry">
            <mxPoint x="689" y="547" as="sourcePoint" />
            <mxPoint x="759" y="457" as="targetPoint" />
          </mxGeometry>
        </mxCell>
        <mxCell id="EE9BV4YBEMpnvcACtNnI-26" value="1" style="edgeLabel;resizable=0;html=1;align=left;verticalAlign=top;labelBorderColor=none;strokeColor=#999999;fontColor=#CC6600;fillColor=none;labelBackgroundColor=none;" parent="EE9BV4YBEMpnvcACtNnI-25" connectable="0" vertex="1">
          <mxGeometry x="-1" relative="1" as="geometry">
            <mxPoint x="20" as="offset" />
          </mxGeometry>
        </mxCell>
        <mxCell id="EE9BV4YBEMpnvcACtNnI-33" value="" style="endArrow=open;html=1;endSize=12;startArrow=diamondThin;startSize=14;startFill=0;edgeStyle=orthogonalEdgeStyle;rounded=0;fontColor=#CC6600;entryX=0.5;entryY=0;entryDx=0;entryDy=0;strokeColor=#999999;" parent="1" source="EE9BV4YBEMpnvcACtNnI-5" target="EE9BV4YBEMpnvcACtNnI-9" edge="1">
          <mxGeometry relative="1" as="geometry">
            <mxPoint x="169" y="529" as="sourcePoint" />
            <mxPoint x="304" y="600" as="targetPoint" />
          </mxGeometry>
        </mxCell>
        <mxCell id="EE9BV4YBEMpnvcACtNnI-34" value="0...n" style="edgeLabel;resizable=0;html=1;align=left;verticalAlign=top;labelBorderColor=none;strokeColor=#999999;fontColor=#CC6600;fillColor=none;labelBackgroundColor=none;" parent="EE9BV4YBEMpnvcACtNnI-33" connectable="0" vertex="1">
          <mxGeometry x="-1" relative="1" as="geometry">
            <mxPoint x="-40" as="offset" />
          </mxGeometry>
        </mxCell>
        <mxCell id="EE9BV4YBEMpnvcACtNnI-38" value="" style="endArrow=open;html=1;endSize=12;startArrow=diamondThin;startSize=14;startFill=0;edgeStyle=orthogonalEdgeStyle;rounded=0;fontColor=#CC6600;entryX=0.004;entryY=0.141;entryDx=0;entryDy=0;strokeColor=#999999;exitX=1;exitY=0.5;exitDx=0;exitDy=0;entryPerimeter=0;" parent="1" source="EE9BV4YBEMpnvcACtNnI-7" target="EE9BV4YBEMpnvcACtNnI-17" edge="1">
          <mxGeometry relative="1" as="geometry">
            <mxPoint x="489" y="527" as="sourcePoint" />
            <mxPoint x="314" y="717" as="targetPoint" />
          </mxGeometry>
        </mxCell>
        <mxCell id="EE9BV4YBEMpnvcACtNnI-39" value="1" style="edgeLabel;resizable=0;html=1;align=left;verticalAlign=top;labelBorderColor=none;strokeColor=#999999;fontColor=#CC6600;fillColor=none;labelBackgroundColor=none;" parent="EE9BV4YBEMpnvcACtNnI-38" connectable="0" vertex="1">
          <mxGeometry x="-1" relative="1" as="geometry">
            <mxPoint x="20" as="offset" />
          </mxGeometry>
        </mxCell>
        <mxCell id="dw-5MU0nXrqIQdTcudcJ-2" value="RecordingSession" style="swimlane;fontStyle=0;childLayout=stackLayout;horizontal=1;startSize=26;fillColor=none;horizontalStack=0;resizeParent=1;resizeParentMax=0;resizeLast=0;collapsible=1;marginBottom=0;labelBorderColor=none;fontColor=#CC6600;strokeColor=#999999;" vertex="1" parent="1">
          <mxGeometry x="380" y="270" width="220" height="102" as="geometry" />
        </mxCell>
        <mxCell id="dw-5MU0nXrqIQdTcudcJ-39" value="+ participant: Participant" style="text;strokeColor=none;fillColor=none;align=left;verticalAlign=top;spacingLeft=4;spacingRight=4;overflow=hidden;rotatable=0;points=[[0,0.5],[1,0.5]];portConstraint=eastwest;labelBorderColor=none;fontColor=#CC6600;" vertex="1" parent="dw-5MU0nXrqIQdTcudcJ-2">
          <mxGeometry y="26" width="220" height="26" as="geometry" />
        </mxCell>
        <mxCell id="dw-5MU0nXrqIQdTcudcJ-4" value="+ meta: RecordingSessionMetadata" style="text;strokeColor=none;fillColor=none;align=left;verticalAlign=top;spacingLeft=4;spacingRight=4;overflow=hidden;rotatable=0;points=[[0,0.5],[1,0.5]];portConstraint=eastwest;labelBorderColor=none;fontColor=#CC6600;" vertex="1" parent="dw-5MU0nXrqIQdTcudcJ-2">
          <mxGeometry y="52" width="220" height="26" as="geometry" />
        </mxCell>
        <mxCell id="dw-5MU0nXrqIQdTcudcJ-3" value="+ recordngs: list[Recording]" style="text;strokeColor=none;fillColor=none;align=left;verticalAlign=top;spacingLeft=4;spacingRight=4;overflow=hidden;rotatable=0;points=[[0,0.5],[1,0.5]];portConstraint=eastwest;labelBorderColor=none;fontColor=#CC6600;" vertex="1" parent="dw-5MU0nXrqIQdTcudcJ-2">
          <mxGeometry y="78" width="220" height="24" as="geometry" />
        </mxCell>
        <mxCell id="dw-5MU0nXrqIQdTcudcJ-9" value="" style="endArrow=open;html=1;endSize=12;startArrow=diamondThin;startSize=14;startFill=0;edgeStyle=orthogonalEdgeStyle;rounded=0;fontColor=#CC6600;entryX=0.5;entryY=0;entryDx=0;entryDy=0;strokeColor=#999999;" edge="1" parent="1" source="dw-5MU0nXrqIQdTcudcJ-2" target="EE9BV4YBEMpnvcACtNnI-5">
          <mxGeometry relative="1" as="geometry">
            <mxPoint x="480" y="372" as="sourcePoint" />
            <mxPoint x="486.5" y="434" as="targetPoint" />
          </mxGeometry>
        </mxCell>
        <mxCell id="dw-5MU0nXrqIQdTcudcJ-10" value="0...n" style="edgeLabel;resizable=0;html=1;align=left;verticalAlign=top;labelBorderColor=none;strokeColor=#999999;fontColor=#CC6600;fillColor=none;labelBackgroundColor=none;" connectable="0" vertex="1" parent="dw-5MU0nXrqIQdTcudcJ-9">
          <mxGeometry x="-1" relative="1" as="geometry">
            <mxPoint x="-40" as="offset" />
          </mxGeometry>
        </mxCell>
        <mxCell id="dw-5MU0nXrqIQdTcudcJ-11" value="Dataset" style="swimlane;fontStyle=0;childLayout=stackLayout;horizontal=1;startSize=26;fillColor=none;horizontalStack=0;resizeParent=1;resizeParentMax=0;resizeLast=0;collapsible=1;marginBottom=0;labelBorderColor=none;fontColor=#CC6600;strokeColor=#999999;" vertex="1" parent="1">
          <mxGeometry x="380" y="40" width="220" height="102" as="geometry" />
        </mxCell>
        <mxCell id="dw-5MU0nXrqIQdTcudcJ-13" value="+ meta: DatasetMetadata" style="text;strokeColor=none;fillColor=none;align=left;verticalAlign=top;spacingLeft=4;spacingRight=4;overflow=hidden;rotatable=0;points=[[0,0.5],[1,0.5]];portConstraint=eastwest;labelBorderColor=none;fontColor=#CC6600;" vertex="1" parent="dw-5MU0nXrqIQdTcudcJ-11">
          <mxGeometry y="26" width="220" height="26" as="geometry" />
        </mxCell>
        <mxCell id="dw-5MU0nXrqIQdTcudcJ-30" value="+ participants: dict[str, Participant]" style="text;strokeColor=none;fillColor=none;align=left;verticalAlign=top;spacingLeft=4;spacingRight=4;overflow=hidden;rotatable=0;points=[[0,0.5],[1,0.5]];portConstraint=eastwest;labelBorderColor=none;fontColor=#CC6600;" vertex="1" parent="dw-5MU0nXrqIQdTcudcJ-11">
          <mxGeometry y="52" width="220" height="26" as="geometry" />
        </mxCell>
        <mxCell id="dw-5MU0nXrqIQdTcudcJ-12" value="+ sessions: list[RecordingSession]" style="text;strokeColor=none;fillColor=none;align=left;verticalAlign=top;spacingLeft=4;spacingRight=4;overflow=hidden;rotatable=0;points=[[0,0.5],[1,0.5]];portConstraint=eastwest;labelBorderColor=none;fontColor=#CC6600;" vertex="1" parent="dw-5MU0nXrqIQdTcudcJ-11">
          <mxGeometry y="78" width="220" height="24" as="geometry" />
        </mxCell>
        <mxCell id="dw-5MU0nXrqIQdTcudcJ-14" value="RecordingSessionMetaData" style="swimlane;fontStyle=0;childLayout=stackLayout;horizontal=1;startSize=26;fillColor=none;horizontalStack=0;resizeParent=1;resizeParentMax=0;resizeLast=0;collapsible=1;marginBottom=0;labelBorderColor=none;strokeColor=#999999;fontColor=#CC6600;" vertex="1" parent="1">
          <mxGeometry x="688.5" y="321" width="180" height="78" as="geometry" />
        </mxCell>
        <mxCell id="dw-5MU0nXrqIQdTcudcJ-16" value="+ time_of_recording: datetime" style="text;strokeColor=none;fillColor=none;align=left;verticalAlign=top;spacingLeft=4;spacingRight=4;overflow=hidden;rotatable=0;points=[[0,0.5],[1,0.5]];portConstraint=eastwest;labelBorderColor=none;fontColor=#CC6600;" vertex="1" parent="dw-5MU0nXrqIQdTcudcJ-14">
          <mxGeometry y="26" width="180" height="26" as="geometry" />
        </mxCell>
        <mxCell id="dw-5MU0nXrqIQdTcudcJ-17" value="+ prompt: str" style="text;strokeColor=none;fillColor=none;align=left;verticalAlign=top;spacingLeft=4;spacingRight=4;overflow=hidden;rotatable=0;points=[[0,0.5],[1,0.5]];portConstraint=eastwest;labelBorderColor=none;fontColor=#CC6600;" vertex="1" parent="dw-5MU0nXrqIQdTcudcJ-14">
          <mxGeometry y="52" width="180" height="26" as="geometry" />
        </mxCell>
        <mxCell id="dw-5MU0nXrqIQdTcudcJ-24" value="DatasetMetaData" style="swimlane;fontStyle=0;childLayout=stackLayout;horizontal=1;startSize=26;fillColor=none;horizontalStack=0;resizeParent=1;resizeParentMax=0;resizeLast=0;collapsible=1;marginBottom=0;labelBorderColor=none;strokeColor=#999999;fontColor=#CC6600;" vertex="1" parent="1">
          <mxGeometry x="688.5" y="67" width="180" height="78" as="geometry" />
        </mxCell>
        <mxCell id="dw-5MU0nXrqIQdTcudcJ-25" value="+ ?" style="text;strokeColor=none;fillColor=none;align=left;verticalAlign=top;spacingLeft=4;spacingRight=4;overflow=hidden;rotatable=0;points=[[0,0.5],[1,0.5]];portConstraint=eastwest;labelBorderColor=none;fontColor=#CC6600;" vertex="1" parent="dw-5MU0nXrqIQdTcudcJ-24">
          <mxGeometry y="26" width="180" height="26" as="geometry" />
        </mxCell>
        <mxCell id="dw-5MU0nXrqIQdTcudcJ-26" value="+ ?" style="text;strokeColor=none;fillColor=none;align=left;verticalAlign=top;spacingLeft=4;spacingRight=4;overflow=hidden;rotatable=0;points=[[0,0.5],[1,0.5]];portConstraint=eastwest;labelBorderColor=none;fontColor=#CC6600;" vertex="1" parent="dw-5MU0nXrqIQdTcudcJ-24">
          <mxGeometry y="52" width="180" height="26" as="geometry" />
        </mxCell>
        <mxCell id="dw-5MU0nXrqIQdTcudcJ-27" value="Participant" style="swimlane;fontStyle=0;childLayout=stackLayout;horizontal=1;startSize=26;fillColor=none;horizontalStack=0;resizeParent=1;resizeParentMax=0;resizeLast=0;collapsible=1;marginBottom=0;labelBorderColor=none;strokeColor=#999999;fontColor=#CC6600;" vertex="1" parent="1">
          <mxGeometry x="688.5" y="186" width="191" height="78" as="geometry" />
        </mxCell>
        <mxCell id="dw-5MU0nXrqIQdTcudcJ-28" value="+ id: str" style="text;strokeColor=none;fillColor=none;align=left;verticalAlign=top;spacingLeft=4;spacingRight=4;overflow=hidden;rotatable=0;points=[[0,0.5],[1,0.5]];portConstraint=eastwest;labelBorderColor=none;fontColor=#CC6600;" vertex="1" parent="dw-5MU0nXrqIQdTcudcJ-27">
          <mxGeometry y="26" width="191" height="26" as="geometry" />
        </mxCell>
        <mxCell id="dw-5MU0nXrqIQdTcudcJ-29" value="+ metadata: ParticipantMetadata" style="text;strokeColor=none;fillColor=none;align=left;verticalAlign=top;spacingLeft=4;spacingRight=4;overflow=hidden;rotatable=0;points=[[0,0.5],[1,0.5]];portConstraint=eastwest;labelBorderColor=none;fontColor=#CC6600;" vertex="1" parent="dw-5MU0nXrqIQdTcudcJ-27">
          <mxGeometry y="52" width="191" height="26" as="geometry" />
        </mxCell>
        <mxCell id="dw-5MU0nXrqIQdTcudcJ-31" value="" style="endArrow=open;html=1;endSize=12;startArrow=diamondThin;startSize=14;startFill=0;edgeStyle=orthogonalEdgeStyle;rounded=0;fontColor=#CC6600;entryX=0.5;entryY=0;entryDx=0;entryDy=0;strokeColor=#999999;" edge="1" parent="1" source="dw-5MU0nXrqIQdTcudcJ-11" target="dw-5MU0nXrqIQdTcudcJ-2">
          <mxGeometry relative="1" as="geometry">
            <mxPoint x="480" y="150" as="sourcePoint" />
            <mxPoint x="499" y="410" as="targetPoint" />
          </mxGeometry>
        </mxCell>
        <mxCell id="dw-5MU0nXrqIQdTcudcJ-32" value="0...n" style="edgeLabel;resizable=0;html=1;align=left;verticalAlign=top;labelBorderColor=none;strokeColor=#999999;fontColor=#CC6600;fillColor=none;labelBackgroundColor=none;" connectable="0" vertex="1" parent="dw-5MU0nXrqIQdTcudcJ-31">
          <mxGeometry x="-1" relative="1" as="geometry">
            <mxPoint x="-40" as="offset" />
          </mxGeometry>
        </mxCell>
        <mxCell id="dw-5MU0nXrqIQdTcudcJ-33" value="" style="endArrow=open;html=1;endSize=12;startArrow=diamondThin;startSize=14;startFill=0;edgeStyle=orthogonalEdgeStyle;rounded=0;fontColor=#CC6600;entryX=0.009;entryY=0.144;entryDx=0;entryDy=0;strokeColor=#999999;exitX=1;exitY=0.5;exitDx=0;exitDy=0;entryPerimeter=0;" edge="1" parent="1" source="dw-5MU0nXrqIQdTcudcJ-13" target="dw-5MU0nXrqIQdTcudcJ-24">
          <mxGeometry relative="1" as="geometry">
            <mxPoint x="638" y="190" as="sourcePoint" />
            <mxPoint x="557" y="420" as="targetPoint" />
          </mxGeometry>
        </mxCell>
        <mxCell id="dw-5MU0nXrqIQdTcudcJ-35" value="" style="endArrow=open;html=1;endSize=12;startArrow=diamondThin;startSize=14;startFill=0;edgeStyle=orthogonalEdgeStyle;rounded=0;fontColor=#CC6600;strokeColor=#999999;exitX=1;exitY=0.5;exitDx=0;exitDy=0;entryX=0.07;entryY=0.01;entryDx=0;entryDy=0;entryPerimeter=0;" edge="1" parent="1" source="dw-5MU0nXrqIQdTcudcJ-30" target="dw-5MU0nXrqIQdTcudcJ-27">
          <mxGeometry relative="1" as="geometry">
            <mxPoint x="610" y="113" as="sourcePoint" />
            <mxPoint x="700" y="180" as="targetPoint" />
            <Array as="points">
              <mxPoint x="650" y="105" />
              <mxPoint x="650" y="160" />
              <mxPoint x="702" y="160" />
            </Array>
          </mxGeometry>
        </mxCell>
        <mxCell id="dw-5MU0nXrqIQdTcudcJ-37" value="" style="endArrow=open;html=1;endSize=12;startArrow=diamondThin;startSize=14;startFill=0;edgeStyle=orthogonalEdgeStyle;rounded=0;fontColor=#CC6600;strokeColor=#999999;exitX=1;exitY=0.5;exitDx=0;exitDy=0;entryX=0.006;entryY=0.167;entryDx=0;entryDy=0;entryPerimeter=0;" edge="1" parent="1" source="dw-5MU0nXrqIQdTcudcJ-39" target="dw-5MU0nXrqIQdTcudcJ-27">
          <mxGeometry relative="1" as="geometry">
            <mxPoint x="620" y="299" as="sourcePoint" />
            <mxPoint x="670" y="190" as="targetPoint" />
            <Array as="points">
              <mxPoint x="650" y="309" />
              <mxPoint x="650" y="200" />
              <mxPoint x="690" y="200" />
            </Array>
          </mxGeometry>
        </mxCell>
        <mxCell id="dw-5MU0nXrqIQdTcudcJ-40" value="" style="endArrow=open;html=1;endSize=12;startArrow=diamondThin;startSize=14;startFill=0;edgeStyle=orthogonalEdgeStyle;rounded=0;fontColor=#CC6600;strokeColor=#999999;entryX=0.007;entryY=0.172;entryDx=0;entryDy=0;entryPerimeter=0;" edge="1" parent="1" source="dw-5MU0nXrqIQdTcudcJ-4" target="dw-5MU0nXrqIQdTcudcJ-14">
          <mxGeometry relative="1" as="geometry">
            <mxPoint x="600" y="336" as="sourcePoint" />
            <mxPoint x="690" y="336" as="targetPoint" />
          </mxGeometry>
        </mxCell>
        <mxCell id="dw-5MU0nXrqIQdTcudcJ-41" value="0...n" style="edgeLabel;resizable=0;html=1;align=left;verticalAlign=top;labelBorderColor=none;strokeColor=#999999;fontColor=#CC6600;fillColor=none;labelBackgroundColor=none;" connectable="0" vertex="1" parent="1">
          <mxGeometry x="610" y="108" as="geometry" />
        </mxCell>
        <mxCell id="dw-5MU0nXrqIQdTcudcJ-42" value="1" style="edgeLabel;resizable=0;html=1;align=left;verticalAlign=top;labelBorderColor=none;strokeColor=#999999;fontColor=#CC6600;fillColor=none;labelBackgroundColor=none;" connectable="0" vertex="1" parent="1">
          <mxGeometry x="610" y="50" as="geometry" />
        </mxCell>
        <mxCell id="dw-5MU0nXrqIQdTcudcJ-43" value="1" style="edgeLabel;resizable=0;html=1;align=left;verticalAlign=top;labelBorderColor=none;strokeColor=#999999;fontColor=#CC6600;fillColor=none;labelBackgroundColor=none;" connectable="0" vertex="1" parent="1">
          <mxGeometry x="610" y="280" as="geometry" />
        </mxCell>
        <mxCell id="dw-5MU0nXrqIQdTcudcJ-44" value="1" style="edgeLabel;resizable=0;html=1;align=left;verticalAlign=top;labelBorderColor=none;strokeColor=#999999;fontColor=#CC6600;fillColor=none;labelBackgroundColor=none;" connectable="0" vertex="1" parent="1">
          <mxGeometry x="610" y="340" as="geometry" />
        </mxCell>
        <mxCell id="dw-5MU0nXrqIQdTcudcJ-45" value="ModalityMetaData" style="swimlane;fontStyle=0;childLayout=stackLayout;horizontal=1;startSize=26;fillColor=none;horizontalStack=0;resizeParent=1;resizeParentMax=0;resizeLast=0;collapsible=1;marginBottom=0;labelBorderColor=none;strokeColor=#999999;fontColor=#CC6600;" vertex="1" parent="1">
          <mxGeometry x="689" y="831" width="207" height="102" as="geometry" />
        </mxCell>
        <mxCell id="dw-5MU0nXrqIQdTcudcJ-46" value="Variable content depending on type" style="text;strokeColor=none;fillColor=none;align=left;verticalAlign=top;spacingLeft=4;spacingRight=4;overflow=hidden;rotatable=0;points=[[0,0.5],[1,0.5]];portConstraint=eastwest;labelBorderColor=none;fontColor=#CC6600;" vertex="1" parent="dw-5MU0nXrqIQdTcudcJ-45">
          <mxGeometry y="26" width="207" height="24" as="geometry" />
        </mxCell>
        <mxCell id="dw-5MU0nXrqIQdTcudcJ-47" value="+ time_of_recording: datetime" style="text;strokeColor=none;fillColor=none;align=left;verticalAlign=top;spacingLeft=4;spacingRight=4;overflow=hidden;rotatable=0;points=[[0,0.5],[1,0.5]];portConstraint=eastwest;labelBorderColor=none;fontColor=#CC6600;" vertex="1" parent="dw-5MU0nXrqIQdTcudcJ-45">
          <mxGeometry y="50" width="207" height="26" as="geometry" />
        </mxCell>
        <mxCell id="dw-5MU0nXrqIQdTcudcJ-48" value="+ prompt: str" style="text;strokeColor=none;fillColor=none;align=left;verticalAlign=top;spacingLeft=4;spacingRight=4;overflow=hidden;rotatable=0;points=[[0,0.5],[1,0.5]];portConstraint=eastwest;labelBorderColor=none;fontColor=#CC6600;" vertex="1" parent="dw-5MU0nXrqIQdTcudcJ-45">
          <mxGeometry y="76" width="207" height="26" as="geometry" />
        </mxCell>
        <mxCell id="dw-5MU0nXrqIQdTcudcJ-49" value="" style="endArrow=open;html=1;endSize=12;startArrow=diamondThin;startSize=14;startFill=0;edgeStyle=orthogonalEdgeStyle;rounded=0;fontColor=#CC6600;entryX=-0.011;entryY=0.11;entryDx=0;entryDy=0;strokeColor=#999999;exitX=1;exitY=0.5;exitDx=0;exitDy=0;entryPerimeter=0;" edge="1" parent="1" source="dw-5MU0nXrqIQdTcudcJ-68" target="dw-5MU0nXrqIQdTcudcJ-45">
          <mxGeometry relative="1" as="geometry">
            <mxPoint x="584" y="596" as="sourcePoint" />
            <mxPoint x="700" y="572" as="targetPoint" />
          </mxGeometry>
        </mxCell>
        <mxCell id="dw-5MU0nXrqIQdTcudcJ-50" value="1" style="edgeLabel;resizable=0;html=1;align=left;verticalAlign=top;labelBorderColor=none;strokeColor=#999999;fontColor=#CC6600;fillColor=none;labelBackgroundColor=none;" connectable="0" vertex="1" parent="dw-5MU0nXrqIQdTcudcJ-49">
          <mxGeometry x="-1" relative="1" as="geometry">
            <mxPoint x="20" as="offset" />
          </mxGeometry>
        </mxCell>
        <mxCell id="dw-5MU0nXrqIQdTcudcJ-55" value="Tier" style="swimlane;fontStyle=0;childLayout=stackLayout;horizontal=1;startSize=26;fillColor=none;horizontalStack=0;resizeParent=1;resizeParentMax=0;resizeLast=0;collapsible=1;marginBottom=0;labelBorderColor=none;strokeColor=#999999;fontColor=#CC6600;" vertex="1" parent="1">
          <mxGeometry x="860" y="605" width="160" height="74" as="geometry" />
        </mxCell>
        <mxCell id="dw-5MU0nXrqIQdTcudcJ-56" value="+ intervals: list[Interval] or" style="text;strokeColor=none;fillColor=none;align=left;verticalAlign=top;spacingLeft=4;spacingRight=4;overflow=hidden;rotatable=0;points=[[0,0.5],[1,0.5]];portConstraint=eastwest;labelBorderColor=none;fontColor=#CC6600;" vertex="1" parent="dw-5MU0nXrqIQdTcudcJ-55">
          <mxGeometry y="26" width="160" height="24" as="geometry" />
        </mxCell>
        <mxCell id="dw-5MU0nXrqIQdTcudcJ-57" value="+ points: list[Point]" style="text;strokeColor=none;fillColor=none;align=left;verticalAlign=top;spacingLeft=4;spacingRight=4;overflow=hidden;rotatable=0;points=[[0,0.5],[1,0.5]];portConstraint=eastwest;labelBorderColor=none;fontColor=#CC6600;" vertex="1" parent="dw-5MU0nXrqIQdTcudcJ-55">
          <mxGeometry y="50" width="160" height="24" as="geometry" />
        </mxCell>
        <mxCell id="dw-5MU0nXrqIQdTcudcJ-58" value="" style="endArrow=open;html=1;endSize=12;startArrow=diamondThin;startSize=14;startFill=0;edgeStyle=orthogonalEdgeStyle;rounded=0;fontColor=#CC6600;exitX=1;exitY=0.5;exitDx=0;exitDy=0;entryX=-0.001;entryY=0.17;entryDx=0;entryDy=0;strokeColor=#999999;entryPerimeter=0;" edge="1" parent="1" source="dw-5MU0nXrqIQdTcudcJ-53" target="dw-5MU0nXrqIQdTcudcJ-55">
          <mxGeometry relative="1" as="geometry">
            <mxPoint x="584" y="509" as="sourcePoint" />
            <mxPoint x="699" y="603" as="targetPoint" />
          </mxGeometry>
        </mxCell>
        <mxCell id="dw-5MU0nXrqIQdTcudcJ-59" value="0..n" style="edgeLabel;resizable=0;html=1;align=left;verticalAlign=top;labelBorderColor=none;strokeColor=#999999;fontColor=#CC6600;fillColor=none;labelBackgroundColor=none;" connectable="0" vertex="1" parent="dw-5MU0nXrqIQdTcudcJ-58">
          <mxGeometry x="-1" relative="1" as="geometry">
            <mxPoint x="20" as="offset" />
          </mxGeometry>
        </mxCell>
        <mxCell id="dw-5MU0nXrqIQdTcudcJ-61" value="Annotations" style="swimlane;fontStyle=0;childLayout=stackLayout;horizontal=1;startSize=26;fillColor=none;horizontalStack=0;resizeParent=1;resizeParentMax=0;resizeLast=0;collapsible=1;marginBottom=0;labelBorderColor=none;strokeColor=#999999;fontColor=#CC6600;" vertex="1" parent="1">
          <mxGeometry x="692.5" y="709" width="200" height="50" as="geometry" />
        </mxCell>
        <mxCell id="dw-5MU0nXrqIQdTcudcJ-65" value="Variable content depending on type" style="text;strokeColor=none;fillColor=none;align=left;verticalAlign=top;spacingLeft=4;spacingRight=4;overflow=hidden;rotatable=0;points=[[0,0.5],[1,0.5]];portConstraint=eastwest;labelBorderColor=none;fontColor=#CC6600;" vertex="1" parent="dw-5MU0nXrqIQdTcudcJ-61">
          <mxGeometry y="26" width="200" height="24" as="geometry" />
        </mxCell>
        <mxCell id="dw-5MU0nXrqIQdTcudcJ-66" value="" style="endArrow=open;html=1;endSize=12;startArrow=diamondThin;startSize=14;startFill=0;edgeStyle=orthogonalEdgeStyle;rounded=0;fontColor=#CC6600;strokeColor=#999999;exitX=1;exitY=0.5;exitDx=0;exitDy=0;entryX=0;entryY=0.25;entryDx=0;entryDy=0;" edge="1" parent="1" source="EE9BV4YBEMpnvcACtNnI-12" target="dw-5MU0nXrqIQdTcudcJ-61">
          <mxGeometry relative="1" as="geometry">
            <mxPoint x="490" y="857" as="sourcePoint" />
            <mxPoint x="490" y="947" as="targetPoint" />
          </mxGeometry>
        </mxCell>
        <mxCell id="dw-5MU0nXrqIQdTcudcJ-69" value="0...n" style="edgeLabel;resizable=0;html=1;align=left;verticalAlign=top;labelBorderColor=none;strokeColor=#999999;fontColor=#CC6600;fillColor=none;labelBackgroundColor=none;" connectable="0" vertex="1" parent="1">
          <mxGeometry x="590" y="790" as="geometry" />
        </mxCell>
        <mxCell id="dw-5MU0nXrqIQdTcudcJ-70" value="" style="endArrow=open;html=1;endSize=12;startArrow=diamondThin;startSize=14;startFill=0;edgeStyle=orthogonalEdgeStyle;rounded=0;fontColor=#CC6600;strokeColor=#999999;exitX=1;exitY=0.5;exitDx=0;exitDy=0;entryX=0.071;entryY=-0.044;entryDx=0;entryDy=0;entryPerimeter=0;" edge="1" parent="1" source="dw-5MU0nXrqIQdTcudcJ-73" target="dw-5MU0nXrqIQdTcudcJ-61">
          <mxGeometry relative="1" as="geometry">
            <mxPoint x="570" y="544" as="sourcePoint" />
            <mxPoint x="672" y="618" as="targetPoint" />
            <Array as="points">
              <mxPoint x="620" y="537" />
              <mxPoint x="620" y="680" />
              <mxPoint x="707" y="680" />
            </Array>
          </mxGeometry>
        </mxCell>
        <mxCell id="dw-5MU0nXrqIQdTcudcJ-72" value="0...n" style="edgeLabel;resizable=0;html=1;align=left;verticalAlign=top;labelBorderColor=none;strokeColor=#999999;fontColor=#CC6600;fillColor=none;labelBackgroundColor=none;" connectable="0" vertex="1" parent="1">
          <mxGeometry x="585" y="540" as="geometry" />
        </mxCell>
        <mxCell id="dw-5MU0nXrqIQdTcudcJ-74" value="" style="endArrow=open;html=1;endSize=12;startArrow=diamondThin;startSize=14;startFill=0;edgeStyle=orthogonalEdgeStyle;rounded=0;fontColor=#CC6600;entryX=0.5;entryY=0;entryDx=0;entryDy=0;strokeColor=#999999;exitX=0.496;exitY=0.977;exitDx=0;exitDy=0;exitPerimeter=0;" edge="1" parent="1" source="EE9BV4YBEMpnvcACtNnI-10" target="EE9BV4YBEMpnvcACtNnI-13">
          <mxGeometry relative="1" as="geometry">
            <mxPoint x="499" y="585" as="sourcePoint" />
            <mxPoint x="499" y="787" as="targetPoint" />
          </mxGeometry>
        </mxCell>
        <mxCell id="dw-5MU0nXrqIQdTcudcJ-75" value="1" style="edgeLabel;resizable=0;html=1;align=left;verticalAlign=top;labelBorderColor=none;strokeColor=#999999;fontColor=#CC6600;fillColor=none;labelBackgroundColor=none;" connectable="0" vertex="1" parent="dw-5MU0nXrqIQdTcudcJ-74">
          <mxGeometry x="-1" relative="1" as="geometry">
            <mxPoint x="-19" y="1" as="offset" />
          </mxGeometry>
        </mxCell>
      </root>
    </mxGraphModel>
  </diagram>
</mxfile>
